<svg aria-hidden="true" style="position:absolute;width:0;height:0;overflow:hidden" xmlns="http://www.w3.org/2000/svg">
<defs>
<symbol id="icon-arrow-more" viewBox="0 0 19 32">
<path fill="none" stroke="#d41443" style="stroke:var(--color1, #d41443)" stroke-linejoin="round" stroke-linecap="round" stroke-width="6.4" d="M3.2 3.2 16 16 3.2 28.8"/>
</symbol>
<symbol id="icon-close-cross" viewBox="0 0 32 32">
<path fill="none" stroke="#fff" style="stroke:var(--color2, #fff)" stroke-width="2" d="m2.52 2 26.96 28M2 29.48 30 2.52"/>
</symbol>
<symbol id="icon-dots" viewBox="0 0 256 32">
<path fill="#c7133e" style="fill:var(--color3, #c7133e)" d="M144 16c0 8.837-7.163 16-16 16s-16-7.163-16-16 7.163-16 16-16 16 7.163 16 16zM32 16c0 8.837-7.163 16-16 16S0 24.837 0 16 7.163 0 16 0s16 7.163 16 16zM256 16c0 8.837-7.163 16-16 16s-16-7.163-16-16 7.163-16 16-16 16 7.163 16 16z"/>
</symbol>
<symbol id="icon-eclipse" viewBox="0 0 32 32">
<path fill="#d9d9d9" style="fill:var(--color4, #d9d9d9)" d="M32 16c0 8.837-7.163 16-16 16S0 24.837 0 16 7.163 0 16 0s16 7.163 16 16z"/>
</symbol>
<symbol id="icon-facebook" viewBox="0 0 32 32">
<path d="M16 32c8.837 0 16-7.163 16-16S24.837 0 16 0 0 7.163 0 16s7.163 16 16 16z"/>
<path fill="#fff" style="fill:var(--color2, #fff)" d="M20.446 15.981h-2.611V25.6H13.88v-9.619H12v-3.379h1.88v-2.187c0-1.564.739-4.014 3.991-4.014l2.929.012v3.281h-2.125c-.348 0-.839.176-.839.922v1.989h2.955l-.345 3.377z"/>
</symbol><symbol id="icon-github" viewBox="0 0 32 32">
<path d="M32 16c0 8.837-7.163 16-16 16S0 24.837 0 16 7.163 0 16 0s16 7.163 16 16z"/>
<path fill="#fff" style="fill:var(--color2, #fff)" d="M16 6.588c-5.17 0-9.412 4.242-9.412 9.412 0 4.411 3.096 8.419 7.206 9.412v-3.113a2.314 2.314 0 0 1-1.196-.031c-.556-.164-1.008-.535-1.344-1.099-.214-.36-.593-.753-.988-.724l-.097-1.098c.856-.073 1.594.521 2.033 1.258.196.328.421.52.709.605.278.083.577.043.925-.08.088-.697.408-.958.649-1.327-2.452-.365-3.429-1.666-3.816-2.692-.514-1.364-.238-3.066.67-4.143.018-.021.05-.075.038-.113-.417-1.259.09-2.3.109-2.41.481.141.559-.143 2.089.786l.264.159c.111.066.075.028.186.019a7.787 7.787 0 0 1 1.97-.276h.006a8.021 8.021 0 0 1 2.002.284l.086.009c-.008-.002.024-.006.075-.037 1.911-1.158 1.842-.779 2.355-.946.019.111.519 1.169.106 2.411-.056.171 1.656 1.739.708 4.256-.388 1.026-1.365 2.328-3.816 2.693.314.48.692.734.69 1.722v3.886c4.109-.993 7.206-5 7.206-9.412 0-5.17-4.242-9.412-9.412-9.412z"/>
</symbol>
<symbol id="icon-home" viewBox="0 0 32 32">
<path fill="#d31342" style="fill:var(--color6, #d31342)" d="M31.6 16.765a1.357 1.357 0 0 0-.122-2.032l-.003-.002L17.174 3.056a1.869 1.869 0 0 0-1.146-.389c-.448 0-.86.157-1.183.419l.004-.003L.5 15.35a1.348 1.348 0 0 0-.07 2.037l.001.001.36.347c.595.581 1.56.651 2.152.155l1.072-.896v13.117c0 .803.701 1.456 1.563 1.456h5.592c.864 0 1.563-.653 1.563-1.456v-9.176h7.133v9.208a1.42 1.42 0 0 0 1.421 1.421l.048-.001h-.002 5.928c.861 0 1.56-.651 1.56-1.456V17.179s.299.24.664.541c.363.299 1.131.059 1.709-.536l.408-.419z"/>
</symbol><symbol id="icon-logo" viewBox="0 0 125 32">
<path fill="#fff" style="fill:var(--color2, #fff)" d="M30.745 16c0 8.49-6.742 15.373-15.059 15.373S.627 24.49.627 16C.627 7.51 7.369.627 15.686.627S30.745 7.51 30.745 16z"/>
<path fill="#d41443" style="fill:var(--color1, #d41443)" d="M11.617.55C4.357 2.749 0 8.465 0 15.689c0 5.904 3.031 11.056 8.018 13.631 2.588 1.319 2.968.376.568-1.445-1.704-1.382-2.02-2.01-2.02-4.334 0-1.633-.378-2.952-.947-3.455-1.136-.942-1.262-3.392-.125-4.272.441-.376.883-1.633.946-2.764.316-4.146 4.799-8.04 9.281-8.04s8.965 3.895 9.281 8.04c.063 1.131.505 2.387.947 2.764 1.136.88 1.01 3.329-.127 4.272-.568.503-.947 1.822-.947 3.455 0 2.325-.315 2.953-2.02 4.334-2.652 2.073-1.894 2.827 1.073 1.005 4.168-2.576 7.261-8.166 7.261-13.129 0-9.925-10.354-17.966-19.572-15.202z"/>
<path fill="#d41443" style="fill:var(--color1, #d41443)" d="M12.438 7.837c-1.137.503-2.084 1.131-2.084 1.508 0 .691 3.41 1.948 5.367 1.948s5.367-1.256 5.367-1.948c0-.753-3.915-2.45-5.493-2.45-.632.063-2.084.439-3.157.942zm32.514 3.267c-.947.251-1.136 1.068-1.136 5.591v5.277h4.482l-.189-5.465c-.19-5.716-.442-6.157-3.157-5.402zm7.387.314c-2.083 1.131-2.841 2.513-2.841 5.214 0 3.706 2.02 5.465 5.746 5.214 2.526-.188 2.778-.377 2.967-1.948s.063-1.696-1.894-1.57c-2.02.188-2.083.063-2.083-2.01s.126-2.199 1.958-2.01c1.515.126 2.083-.126 2.335-1.068.126-.628 0-1.508-.379-1.885-.883-.879-4.166-.879-5.808.063zm7.514.062c-.19.503-.253 2.953-.127 5.528l.19 4.649h4.104c3.789 0 4.104-.125 4.293-1.445.189-1.193-.063-1.382-2.02-1.382-1.263 0-2.273-.314-2.273-.628 0-.377.884-.629 1.894-.629 1.452 0 1.894-.251 1.894-1.256s-.442-1.256-1.894-1.256c-1.01 0-1.894-.314-1.894-.628 0-.377.821-.629 1.831-.629 1.768 0 2.967-1.382 2.21-2.575-.568-.942-7.829-.691-8.207.251zm12.689-.188c-2.083.817-2.904 2.261-2.967 4.9-.063 4.523 1.768 6.093 6.503 5.653 1.831-.125 2.147-.439 2.147-1.759 0-1.382-.252-1.57-2.02-1.382-1.515.125-2.083-.063-2.399-1.068-.568-1.948.631-3.518 2.652-3.518 1.2 0 1.831-.376 1.957-1.193.442-2.01-2.778-2.952-5.872-1.633zm7.766-.251c-.316.251-.505 2.827-.505 5.716v5.277l2.02-.188c1.579-.125 2.147-.566 2.463-1.759l.378-1.57.505 1.696c.379 1.445.821 1.759 2.463 1.759 2.714 0 3.03-.44 1.894-2.638-.695-1.382-.821-2.073-.316-2.576.821-.816.884-3.581.126-4.774-.631-1.005-8.207-1.822-9.028-.942zm5.177 3.392c0 .691-.252 1.256-.631 1.256-.316 0-.631-.565-.631-1.256s.316-1.257.631-1.257c.379 0 .631.566.631 1.257zm6.124-3.329c-.253.188-.442 2.764-.442 5.653v5.214h4.104c3.977 0 4.104-.063 4.104-1.57 0-1.32-.316-1.57-1.894-1.57-1.01 0-1.894-.314-1.894-.628 0-.377.695-.628 1.579-.628 1.136 0 1.578-.314 1.578-1.257s-.442-1.256-1.578-1.256c-.884 0-1.579-.314-1.579-.628 0-.376.884-.628 1.894-.628 1.578 0 1.894-.251 1.894-1.57 0-1.508-.189-1.57-3.662-1.57-2.02 0-3.914.188-4.104.439zm12.754-.063c-1.137.314-4.041 8.669-3.473 10.05.505 1.256 3.346 1.131 4.104-.188.568-1.068.631-1.068 1.768 0 1.453 1.256 4.609 1.445 4.609.251 0-.376-.632-2.889-1.453-5.465-1.262-4.146-1.641-4.711-2.967-4.836-.884 0-2.02.063-2.588.188zm1.767 5.716c-.189.628-.316.251-.316-.754 0-1.068.126-1.508.316-1.131.126.439.126 1.319 0 1.884zm7.324-5.653c-.568.188-.821 1.947-.821 5.591v5.277h1.831c1.578 0 1.894-.314 2.147-1.759.252-1.633.252-1.633.757-.314.253.816.884 1.445 1.326 1.445.505 0 1.2-.629 1.515-1.445.505-1.32.568-1.32.568.376.063 1.57.252 1.759 2.02 1.57l1.957-.188.063-5.214c.126-4.836.063-5.213-1.263-5.528-2.02-.502-3.725.691-4.293 3.016l-.442 2.073-.695-2.199c-.884-2.953-2.21-3.706-4.672-2.701zm-104.615.628c-.19.251-.379 1.068-.379 1.884 0 1.445.063 1.445 7.261 1.445 7.197 0 7.26 0 7.26-1.445 0-2.136-.568-2.387-2.588-1.382-2.273 1.193-7.071 1.193-9.344 0-1.01-.503-1.958-.691-2.21-.503zm-1.831 5.591c-1.01 1.068.695 1.508 5.619 1.508h5.303v2.199c0 1.193.316 2.199.632 2.199.378 0 .631-.942.631-2.136 0-2.073.126-2.199 2.526-2.387 1.389-.125 2.526-.502 2.526-.816 0-.691-16.541-1.257-17.236-.566z"/>
<path fill="#d41443" style="fill:var(--color1, #d41443)" d="M8.46 22.851c0 3.455 1.2 4.146 7.261 4.146s7.26-.691 7.26-4.146c0-1.508-.316-2.136-.947-2.136-.568 0-.946.565-.946 1.508 0 3.518-4.799 3.832-5.493.376-.316-1.822-.505-1.884-3.725-1.884H8.46v2.136zm3.915 7.725c.379 2.01 6.819 1.822 6.819-.125 0-.691-.821-.942-3.536-.942-2.967 0-3.472.188-3.283 1.068z"/>
</symbol>
<symbol id="icon-menu-mobile" viewBox="0 0 46 32">
<path fill="none" stroke="#d41443" style="stroke:var(--color1, #d41443)" stroke-width="2.286" d="M0 2.286h45.714M0 16h45.714M0 29.714h45.714"/>
</symbol>
<symbol id="icon-quotes" viewBox="0 0 43 32">
<path fill="#e1e1e1" style="fill:var(--color7, #e1e1e1)" d="M32.014 0c1.928 0 3.75.52 5.464 1.561s3.107 2.537 4.178 4.488c1.029 1.951 1.543 4.25 1.543 6.894s-.643 5.225-1.928 7.74c-.429.91-1.2 2.081-2.315 3.512a63.65 63.65 0 0 1-3.214 3.707L31.692 32l-2.893-4.813a22.225 22.225 0 0 0 5.306-4.646l.03-.037c1.542-1.821 2.314-3.49 2.314-5.008 0-.781-.171-1.41-.514-1.886a8.361 8.361 0 0 1-5.014 1.626c-1.328 0-2.593-.412-3.793-1.236a8.638 8.638 0 0 1-2.935-3.078l-.022-.043c-.771-1.258-1.157-2.558-1.157-3.902 0-1.518.45-2.97 1.35-4.358a10.313 10.313 0 0 1 3.364-3.356l.044-.025C29.142.414 30.556.002 32.014.002zM8.936 0c1.928 0 3.75.52 5.464 1.561s3.107 2.536 4.178 4.488c1.029 1.951 1.543 4.25 1.543 6.894 0 1.864-.236 3.534-.707 5.008-.472 1.518-1.286 3.1-2.443 4.748-1.114 1.561-2.164 2.862-3.15 3.902-.986 1.084-2.7 2.883-5.143 5.398l-2.893-4.813a22.225 22.225 0 0 0 5.306-4.646l.03-.037c1.542-1.821 2.314-3.49 2.314-5.008 0-.781-.172-1.41-.514-1.886a8.361 8.361 0 0 1-5.014 1.626c-1.328 0-2.593-.412-3.793-1.236a8.638 8.638 0 0 1-2.935-3.078l-.022-.043C.386 11.62 0 10.32 0 8.976c0-1.518.429-2.97 1.286-4.358A10.313 10.313 0 0 1 4.65 1.262l.045-.025C6.065.413 7.479.001 8.937.001z"/>
</symbol>
<symbol id="icon-telegram" viewBox="0 0 32 32">
<path d="M32 16c0 8.837-7.163 16-16 16S0 24.837 0 16 7.163 0 16 0s16 7.163 16 16z"/>
<path fill="#fff" style="fill:var(--color2, #fff)" d="m12.867 18.376-.317 4.169c.455 0 .651-.183.888-.401l2.13-1.901 4.414 3.018c.81.421 1.381.199 1.6-.696l2.897-12.673c.258-1.117-.433-1.554-1.221-1.28L6.226 14.698c-1.162.422-1.145 1.026-.198 1.301l4.355 1.264 10.114-5.907c.476-.295.909-.132.553.163l-8.182 6.856z"/>
</symbol>
<symbol id="icon-arrow-right" viewBox="0 0 32 32">
<path d="m19.414 27.414 10-10a2 2 0 0 0 0-2.828l-10-10a2 2 0 1 0-2.828 2.828L23.172 14H4a2 2 0 1 0 0 4h19.172l-6.586 6.586c-.39.39-.586.902-.586 1.414s.195 1.024.586 1.414a2 2 0 0 0 2.828 0z"/>
</symbol>
</defs>
</svg>